HIERARCHY
ROOT Hips
{
  OFFSET 51.9984 56.1128 7.81111
  CHANNELS 6 Xposition Yposition Zposition Zrotation Xrotation Yrotation
  JOINT spine
  {
    OFFSET 0 6.3926 0.367606
    CHANNELS 3 Zrotation Xrotation Yrotation
    JOINT spine1
    {
      OFFSET 0 9.17611 0
      CHANNELS 3 Zrotation Xrotation Yrotation
      JOINT spine2
      {
        OFFSET 0 8.79238 0
        CHANNELS 3 Zrotation Xrotation Yrotation
        JOINT Neck
        {
          OFFSET 0 22.5737 1.07624
          CHANNELS 3 Zrotation Xrotation Yrotation
          JOINT Head
          {
            OFFSET 0 6.82011 0
            CHANNELS 3 Zrotation Xrotation Yrotation
            End Site
            {
              OFFSET 0 16.5085 -5.44427
            }
          }
        }
        JOINT RightShoulder
        {
          OFFSET -3.70221 9.49509 -0.515508
          CHANNELS 3 Zrotation Xrotation Yrotation
          JOINT RightArm
          {
            OFFSET 0 12.4537 0
            CHANNELS 3 Zrotation Xrotation Yrotation
            JOINT RightArmRoll
            {
              OFFSET 0 6.28686 0
              CHANNELS 3 Zrotation Xrotation Yrotation
              JOINT RightForeArm
              {
                OFFSET 0 18.3114 0
                CHANNELS 3 Zrotation Xrotation Yrotation
                JOINT RightForeArmRoll
                {
                  OFFSET 0 7.05483 0
                  CHANNELS 3 Zrotation Xrotation Yrotation
                  JOINT RightHand
                  {
                    OFFSET 0 14.1575 0
                    CHANNELS 3 Zrotation Xrotation Yrotation
                    End Site
                    {
                      OFFSET 0 0 0
                    }
                  }
                }
              }
            }
          }
        }
        JOINT LeftShoulder
        {
          OFFSET 3.70221 9.49509 -0.515508
          CHANNELS 3 Zrotation Xrotation Yrotation
          JOINT LeftArm
          {
            OFFSET 0 12.4537 0
            CHANNELS 3 Zrotation Xrotation Yrotation
            JOINT LeftArmRoll
            {
              OFFSET 0 6.28686 0
              CHANNELS 3 Zrotation Xrotation Yrotation
              JOINT LeftForeArm
              {
                OFFSET 0 18.3114 0
                CHANNELS 3 Zrotation Xrotation Yrotation
                JOINT LeftForeArmRoll
                {
                  OFFSET 0 7.05483 0
                  CHANNELS 3 Zrotation Xrotation Yrotation
                  JOINT LeftHand
                  {
                    OFFSET 0 14.1575 0
                    CHANNELS 3 Zrotation Xrotation Yrotation
                    End Site
                    {
                      OFFSET 0 0 0
                    }
                  }
                }
              }
            }
          }
        }
      }
    }
  }
  JOINT RightUpLeg
  {
    OFFSET -5.66616 -1.03903 -0.87161
    CHANNELS 3 Zrotation Xrotation Yrotation
    JOINT RightUpLegRoll
    {
      OFFSET 0 16.6005 0
      CHANNELS 3 Zrotation Xrotation Yrotation
      JOINT RightLeg
      {
        OFFSET 0 -20.5572 0
        CHANNELS 3 Zrotation Xrotation Yrotation
        JOINT RightLegRoll
        {
          OFFSET 0 20.6244 0
          CHANNELS 3 Zrotation Xrotation Yrotation
          JOINT RightFoot
          {
            OFFSET 0 17.1664 0
            CHANNELS 3 Zrotation Xrotation Yrotation
            JOINT RightToeBase
            {
              OFFSET 0 14.3502 0
              CHANNELS 3 Zrotation Xrotation Yrotation
              End Site
              {
                OFFSET 0.00608252 6.94971 -0.80106
              }
            }
          }
        }
      }
    }
  }
  JOINT LeftUpLeg
  {
    OFFSET 5.66616 -1.03903 -0.87161
    CHANNELS 3 Zrotation Xrotation Yrotation
    JOINT LeftUpLegRoll
    {
      OFFSET 0 16.6006 0
      CHANNELS 3 Zrotation Xrotation Yrotation
      JOINT LeftLeg
      {
        OFFSET 0 20.5571 0
        CHANNELS 3 Zrotation Xrotation Yrotation
        JOINT LeftLegRoll
        {
          OFFSET 0 20.8151 0
          CHANNELS 3 Zrotation Xrotation Yrotation
          JOINT LeftFoot
          {
            OFFSET 0 16.9757 0
            CHANNELS 3 Zrotation Xrotation Yrotation
            JOINT LeftToeBase
            {
              OFFSET 0 14.3502 0
              CHANNELS 3 Zrotation Xrotation Yrotation
              End Site
              {
                OFFSET -0.0272592 6.94971 -0.801061
              }
            }
          }
        }
      }
    }
  }
}
MOTION
Frames: 10
Frame Time: 0.00208333
51.6753 59.5383 9.86095 0.907687 19.2472 3.56886 -0.460173 1.65224 -0.546103 -0.904925 7.31121 -1.02015 -0.894816 8.95605 -1.00668 3.66282 -9.46094 1.80064 -2.82784 -2.3553 1.96279 48.6207 2.63083 3.35341 111.694 22.979 -36.2898 1.01324e-006 4.0695e-008 -3.128e-006 -58.4307 88.4101 52.9012 5.57134e-006 -6.02163e-006 -3 8.029 -4.95142 0.697705 -40.9833 -3.16482 0.19067 -120.107 27.4378 36.2304 -1.95194e-006 7.71242e-007 3.16968e-006 -17.9514 76.9561 19.6869 8.9933e-007 5.27647e-006 3 -8.0289 -4.95144 -0.697707 72.3816 83.4005 109.068 180 7.01601e-015 179.189 176.906 71.6722 179.332 3.26372e-006 1.72386e-006 1.40736 -19.4762 66.085 17.9835 8.12732 25.236 -3.47929 -71.7079 86.3699 -108.949 4.54188e-006 -4.6773e-006 -0.886425 -1.21953 -71.6802 1.48672 1.25027e-006 -4.00694e-006 -1.46148 16.1416 63.5049 -16.403 -8.13682 25.2376 3.48115 
51.6915 59.4428 9.7856 1.03664 19.0409 3.51401 -0.483023 1.67368 -0.547819 -0.950696 7.35428 -1.01989 -0.940715 8.99911 -1.00565 3.68668 -9.38159 1.78965 -2.84975 -2.34308 1.9553 48.6783 2.6003 3.32046 111.681 22.941 -36.3153 1.01324e-006 4.0695e-008 -3.128e-006 -60.5853 88.4082 55.0206 5.57134e-006 -6.02163e-006 -3 8.029 -4.95142 0.697705 -40.9838 -3.14896 0.177088 -120.107 27.3824 36.2331 -1.95194e-006 7.71242e-007 3.16968e-006 -17.9595 77.0282 19.7218 8.9933e-007 5.27647e-006 3 -8.0289 -4.95144 -0.697707 72.6093 83.3748 108.803 180 7.016e-015 179.185 177.213 71.799 179.098 3.26372e-006 1.72386e-006 1.40974 -19.4267 66.0752 17.9779 8.12732 25.236 -3.47929 -72.1433 86.4111 -108.619 4.54188e-006 -4.6773e-006 -0.894309 -1.22348 -71.8319 1.49957 1.25027e-006 -4.00694e-006 -1.47134 16.1898 63.5164 -16.4054 -8.13682 25.2376 3.48115 
51.7257 59.3697 9.73728 1.14254 18.8458 3.46838 -0.501609 1.69264 -0.549661 -0.987899 7.39235 -1.02057 -0.978014 9.03718 -1.00571 3.70832 -9.30253 1.77962 -2.87072 -2.33066 1.94859 48.7383 2.57298 3.28953 111.666 22.9059 -36.3381 1.01324e-006 4.0695e-008 -3.128e-006 -62.6217 88.4059 57.0241 5.57134e-006 -6.02163e-006 -3 8.029 -4.95142 0.697705 -40.9899 -3.13601 0.16664 -120.104 27.329 36.2364 -1.95194e-006 7.71242e-007 3.16968e-006 -17.9707 77.0988 19.7592 8.9933e-007 5.27647e-006 3 -8.0289 -4.95144 -0.697707 72.804 83.3527 108.578 180 7.01599e-015 179.182 177.489 71.9174 178.887 3.26372e-006 1.72386e-006 1.41103 -19.3706 66.0678 17.9744 8.12732 25.236 -3.47929 -72.4123 86.4408 -108.441 4.54188e-006 -4.6773e-006 -0.901357 -1.21494 -71.9769 1.51971 1.25027e-006 -4.00694e-006 -1.48029 16.2295 63.5229 -16.4054 -8.13682 25.2376 3.48115 
51.7445 59.2892 9.67523 1.22147 18.6642 3.43355 -0.515181 1.70865 -0.551648 -1.01503 7.4245 -1.02234 -1.0052 9.06932 -1.00702 3.72757 -9.22393 1.77075 -2.8907 -2.31796 1.94286 48.801 2.54942 3.26097 111.649 22.8739 -36.3574 1.01324e-006 4.0695e-008 -3.128e-006 -64.5594 88.4044 58.9315 5.57134e-006 -6.02163e-006 -3 8.029 -4.95142 0.697705 -41.0022 -3.12651 0.159823 -120.095 27.2776 36.2403 -1.95194e-006 7.71242e-007 3.16968e-006 -17.9853 77.1679 19.7994 8.9933e-007 5.27647e-006 3 -8.0289 -4.95144 -0.697707 72.9561 83.3349 108.405 180 7.01599e-015 179.179 177.726 72.0265 178.705 3.26372e-006 1.72386e-006 1.41107 -19.3076 66.0632 17.9734 8.12732 25.236 -3.47929 -72.4735 86.457 -108.456 4.54188e-006 -4.6773e-006 -0.907422 -1.19155 -72.1142 1.54855 1.25027e-006 -4.00694e-006 -1.48816 16.2593 63.5231 -16.4026 -8.13682 25.2376 3.48115 
51.753 59.2233 9.61602 1.27621 18.4935 3.40759 -0.524139 1.722 -0.553713 -1.03289 7.45128 -1.025 -1.02308 9.0961 -1.0094 3.74244 -9.14434 1.76271 -2.90822 -2.30539 1.93769 48.865 2.52998 3.23524 111.629 22.8445 -36.3741 1.01324e-006 4.0695e-008 -3.128e-006 -66.3894 88.4026 60.7332 5.57134e-006 -6.02163e-006 -3 8.029 -4.95142 0.697705 -41.0216 -3.12036 0.156687 -120.082 27.228 36.2453 -1.95194e-006 7.71242e-007 3.16968e-006 -18.0043 77.2356 19.8432 8.9933e-007 5.27647e-006 3 -8.0289 -4.95144 -0.697707 73.0769 83.3223 108.271 180 7.01599e-015 179.178 177.929 72.1262 178.548 3.26372e-006 1.72386e-006 1.40961 -19.233 66.0614 17.975 8.12732 25.236 -3.47929 -72.3511 86.4604 -108.64 4.54188e-006 -4.6773e-006 -0.91262 -1.15516 -72.2456 1.58518 1.25027e-006 -4.00694e-006 -1.49503 16.2799 63.5182 -16.3974 -8.13682 25.2376 3.48115 
51.7549 59.1496 9.57215 1.31347 18.3295 3.38718 -0.529642 1.7334 -0.555789 -1.0438 7.47416 -1.02824 -1.03398 9.11897 -1.01246 3.75164 -9.06255 1.755 -2.92227 -2.29332 1.93256 48.9291 2.51427 3.21222 111.607 22.8173 -36.3895 1.01324e-006 4.0695e-008 -3.128e-006 -68.0791 88.3989 62.3965 5.57134e-006 -6.02163e-006 -3 8.029 -4.95142 0.697705 -41.0485 -3.11692 0.156694 -120.061 27.18 36.2516 -1.95194e-006 7.71242e-007 3.16968e-006 -18.028 77.3016 19.8909 8.9933e-007 5.27647e-006 3 -8.0289 -4.95144 -0.697707 73.1864 83.3153 108.153 180 7.01598e-015 179.177 178.108 72.2179 178.408 3.26372e-006 1.72386e-006 1.40663 -19.1437 66.0616 17.9787 8.12732 25.236 -3.47929 -72.1078 86.4541 -108.936 4.54188e-006 -4.6773e-006 -0.917208 -1.10967 -72.374 1.6275 1.25027e-006 -4.00694e-006 -1.50113 16.2937 63.5107 -16.3912 -8.13682 25.2376 3.48115 
51.7316 59.102 9.52655 1.3352 18.1713 3.37186 -0.53208 1.7431 -0.557888 -1.04855 7.49359 -1.03202 -1.03871 9.1384 -1.01617 3.75608 -8.97901 1.74757 -2.93349 -2.28166 1.92748 48.9936 2.50176 3.19149 111.583 22.7923 -36.4039 1.01324e-006 4.0695e-008 -3.128e-006 -69.6188 88.3936 63.9116 5.57134e-006 -6.02163e-006 -3 8.029 -4.95142 0.697705 -41.0822 -3.11584 0.159458 -120.036 27.1336 36.2589 -1.95194e-006 7.71242e-007 3.16968e-006 -18.0559 77.366 19.9419 8.9933e-007 5.27647e-006 3 -8.0289 -4.95144 -0.697707 73.2886 83.313 108.046 180 7.01598e-015 179.177 178.267 72.3022 178.282 3.26372e-006 1.72386e-006 1.40232 -19.0417 66.0636 17.9844 8.12732 25.236 -3.47929 -71.762 86.4391 -109.328 4.54188e-006 -4.6773e-006 -0.921248 -1.05578 -72.4994 1.6751 1.25027e-006 -4.00694e-006 -1.50654 16.3015 63.5009 -16.3842 -8.13682 25.2376 3.48115 
51.6915 59.0236 9.48362 1.34335 18.0184 3.36117 -0.531844 1.75131 -0.560023 -1.04793 7.51003 -1.0363 -1.03804 9.15484 -1.02047 3.75667 -8.89419 1.74043 -2.94253 -2.2703 1.92247 49.0588 2.49189 3.17259 111.558 22.7696 -36.4171 1.01324e-006 4.0695e-008 -3.128e-006 -70.999 88.3872 65.2693 5.57134e-006 -6.02163e-006 -3 8.029 -4.95142 0.697705 -41.1217 -3.11677 0.164595 -120.005 27.0887 36.2669 -1.95194e-006 7.71242e-007 3.16968e-006 -18.0873 77.4286 19.9957 8.9933e-007 5.27647e-006 3 -8.0289 -4.95144 -0.697707 73.3871 83.3149 107.946 180 7.01599e-015 179.177 178.408 72.3799 178.169 3.26372e-006 1.72386e-006 1.3969 -18.9293 66.0671 17.9915 8.12732 25.236 -3.47929 -71.3326 86.4166 -109.795 4.54188e-006 -4.6773e-006 -0.924802 -0.994247 -72.6219 1.72758 1.25027e-006 -4.00694e-006 -1.51135 16.3041 63.4891 -16.3765 -8.13682 25.2376 3.48115 
51.6936 58.9663 9.42335 1.33985 17.8699 3.35464 -0.529323 1.75827 -0.562207 -1.04271 7.52393 -1.04104 -1.03276 9.16875 -1.02531 3.75432 -8.80856 1.73353 -2.95001 -2.25912 1.91755 49.1251 2.48414 3.15509 111.53 22.7493 -36.4295 1.01324e-006 4.0695e-008 -3.128e-006 -72.2127 88.3799 66.4627 5.57134e-006 -6.02163e-006 -3 8.029 -4.95142 0.697705 -41.1662 -3.11937 0.17172 -119.971 27.0454 36.2755 -1.95194e-006 7.71242e-007 3.16968e-006 -18.1219 77.4894 20.0518 8.9933e-007 5.27647e-006 3 -8.0289 -4.95144 -0.697707 73.4858 83.32 107.85 180 7.01599e-015 179.178 178.533 72.4519 178.068 3.26372e-006 1.72386e-006 1.39056 -18.8085 66.0716 17.9998 8.12732 25.236 -3.47929 -70.8393 86.3877 -110.32 4.54188e-006 -4.6773e-006 -0.927932 -0.925802 -72.7415 1.78448 1.25027e-006 -4.00694e-006 -1.51565 16.3023 63.4759 -16.3682 -8.13682 25.2376 3.48115 
51.6706 58.903 9.38621 1.32665 17.7252 3.35183 -0.524907 1.76419 -0.564454 -1.03369 7.53576 -1.04621 -1.02365 9.18058 -1.03065 3.74994 -8.72257 1.72686 -2.95658 -2.24803 1.91273 49.1928 2.47796 3.13854 111.502 22.7314 -36.4411 1.01324e-006 4.0695e-008 -3.128e-006 -73.254 88.3721 67.4859 5.57134e-006 -6.02163e-006 -3 8.029 -4.95142 0.697705 -41.2151 -3.12329 0.180446 -119.932 27.0036 36.2842 -1.95194e-006 7.71242e-007 3.16968e-006 -18.1589 77.5484 20.1096 8.9933e-007 5.27647e-006 3 -8.0289 -4.95144 -0.697707 73.5882 83.3277 107.752 180 7.01599e-015 179.179 178.644 72.519 177.977 3.26372e-006 1.72386e-006 1.38351 -18.6816 66.0768 18.0089 8.12732 25.236 -3.47929 -70.3002 86.3537 -110.885 4.54188e-006 -4.6773e-006 -0.9307 -0.851218 -72.8583 1.84537 1.25027e-006 -4.00694e-006 -1.51951 16.2969 63.4617 -16.3596 -8.13682 25.2376 3.48115 
